<svg xmlns="http://www.w3.org/2000/svg" viewBox="0 0 800 130" width="800" height="130">
<defs>
  <clipPath id="gc"><rect width="800" height="130"/></clipPath>
  <style>
    @keyframes f1{0%,49%{opacity:1}50%,100%{opacity:0}}
    @keyframes f2{0%,49%{opacity:0}50%,100%{opacity:1}}
    @keyframes gla{0%,100%{opacity:.28}50%{opacity:1}}
    @keyframes glb{0%,100%{opacity:.22}50%{opacity:.95}}
    @keyframes glc{0%,100%{opacity:.2}50%{opacity:1}}
    @keyframes bc{0%,49%{opacity:1}50%,100%{opacity:0}}
    @keyframes tw{0%,100%{opacity:.05}50%{opacity:.9}}
    @keyframes sc{0%{transform:translateY(0);opacity:.05}100%{transform:translateY(130px);opacity:0}}
    @keyframes gr{from{transform:translateX(0)}to{transform:translateX(-16px)}}
    .a1{animation:f1 .4s steps(1,end) infinite}
    .a2{animation:f2 .4s steps(1,end) infinite}
    .ea{animation:gla 1.7s ease-in-out infinite}
    .eb{animation:glb 1.4s ease-in-out infinite .3s}
    .ec{animation:glc 1.6s ease-in-out infinite .1s}
    .sc{animation:sc 5s linear infinite}
    .bc{animation:bc 1s steps(1,end) infinite}
    .gr{animation:gr .55s linear infinite}
    .t1{animation:tw 1.9s ease-in-out infinite}
    .t2{animation:tw 2.5s ease-in-out infinite .5s}
    .t3{animation:tw 1.6s ease-in-out infinite 1.1s}
    .t4{animation:tw 3.0s ease-in-out infinite .8s}
  </style>
</defs>

<rect width="800" height="130" fill="#0d1117"/>
<rect width="800" height="2" fill="#4493f8" opacity=".06" class="sc"/>

<!-- dividers -->
<line x1="270" y1="18" x2="270" y2="106" stroke="#21262d" stroke-width="1"/>
<line x1="540" y1="18" x2="540" y2="106" stroke="#21262d" stroke-width="1"/>

<!-- center stars -->
<rect x="308" y="9"  width="2" height="2" fill="#c9d1d9" class="t1"/>
<rect x="375" y="18" width="2" height="2" fill="#c9d1d9" class="t2"/>
<rect x="425" y="7"  width="2" height="2" fill="#c9d1d9" class="t3"/>
<rect x="490" y="22" width="2" height="2" fill="#c9d1d9" class="t4"/>
<rect x="345" y="27" width="2" height="2" fill="#c9d1d9" class="t2"/>
<rect x="460" y="14" width="2" height="2" fill="#c9d1d9" class="t1"/>

<!-- ===================== LEFT: INTEGRIS (blue) ===================== -->
<text x="42" y="27" font-family="monospace" font-size="7" fill="#4493f8" text-anchor="middle" letter-spacing="1">INTEGRIS</text>
<g transform="translate(15,108)">
  <rect x="11" y="-73" width="5"  height="9"  fill="#4493f8" opacity=".8"/>
  <rect x="6"  y="-68" width="15" height="4"  fill="#4493f8" opacity=".5"/>
  <rect x="0"  y="-64" width="30" height="5"  fill="#4493f8"/>
  <rect x="0"  y="-59" width="5"  height="5"  fill="#4493f8"/>
  <rect x="5"  y="-59" width="20" height="5"  fill="#161b22"/>
  <rect x="25" y="-59" width="5"  height="5"  fill="#4493f8"/>
  <rect x="0"  y="-54" width="5"  height="5"  fill="#4493f8"/>
  <rect x="5"  y="-54" width="7"  height="5"  fill="#58d4ff" class="ea"/>
  <rect x="12" y="-54" width="6"  height="5"  fill="#161b22"/>
  <rect x="18" y="-54" width="7"  height="5"  fill="#58d4ff" class="ea"/>
  <rect x="25" y="-54" width="5"  height="5"  fill="#4493f8"/>
  <rect x="0"  y="-49" width="30" height="5"  fill="#4493f8"/>
  <rect x="0"  y="-44" width="30" height="5"  fill="#4493f8"/>
  <rect x="0"  y="-39" width="5"  height="10" fill="#4493f8"/>
  <rect x="5"  y="-39" width="20" height="10" fill="#161b22"/>
  <rect x="25" y="-39" width="5"  height="10" fill="#4493f8"/>
  <rect x="12" y="-37" width="6"  height="6"  fill="#3fb950" class="ea"/>
  <rect x="0"  y="-29" width="30" height="5"  fill="#4493f8"/>
  <rect x="5"  y="-24" width="20" height="5"  fill="#1158c7"/>
  <g class="a1">
    <rect x="5"  y="-19" width="6"  height="5"  fill="#1158c7"/>
    <rect x="19" y="-19" width="6"  height="5"  fill="#1158c7"/>
    <rect x="0"  y="-14" width="6"  height="5"  fill="#0d3a8a"/>
    <rect x="19" y="-14" width="11" height="5"  fill="#0d3a8a"/>
  </g>
  <g class="a2">
    <rect x="5"  y="-19" width="6"  height="5"  fill="#1158c7"/>
    <rect x="19" y="-19" width="6"  height="5"  fill="#1158c7"/>
    <rect x="0"  y="-14" width="11" height="5"  fill="#0d3a8a"/>
    <rect x="24" y="-14" width="6"  height="5"  fill="#0d3a8a"/>
  </g>
</g>

<!-- ===================== LEFT: JULES (amber) ===================== -->
<text x="187" y="27" font-family="monospace" font-size="7" fill="#e6a800" text-anchor="middle" letter-spacing="1">JULES</text>
<g transform="translate(160,108)">
  <rect x="11" y="-70" width="5"  height="7"  fill="#e6a800" opacity=".8"/>
  <rect x="5"  y="-64" width="20" height="5"  fill="#e6a800"/>
  <rect x="0"  y="-59" width="30" height="5"  fill="#e6a800"/>
  <rect x="0"  y="-54" width="5"  height="5"  fill="#e6a800"/>
  <rect x="5"  y="-54" width="7"  height="5"  fill="#ffcc00" class="eb"/>
  <rect x="12" y="-54" width="6"  height="5"  fill="#161b22"/>
  <rect x="18" y="-54" width="7"  height="5"  fill="#ffcc00" class="eb"/>
  <rect x="25" y="-54" width="5"  height="5"  fill="#e6a800"/>
  <rect x="5"  y="-49" width="20" height="5"  fill="#e6a800"/>
  <rect x="0"  y="-44" width="30" height="5"  fill="#c8870a"/>
  <rect x="0"  y="-39" width="5"  height="10" fill="#c8870a"/>
  <rect x="5"  y="-39" width="20" height="10" fill="#161b22"/>
  <rect x="25" y="-39" width="5"  height="10" fill="#c8870a"/>
  <rect x="9"  y="-37" width="4"  height="2"  fill="#e6a800"/>
  <rect x="13" y="-35" width="4"  height="2"  fill="#e6a800"/>
  <rect x="9"  y="-33" width="4"  height="2"  fill="#e6a800"/>
  <rect x="0"  y="-29" width="30" height="5"  fill="#c8870a"/>
  <rect x="5"  y="-24" width="20" height="5"  fill="#a06a08"/>
  <g class="a2">
    <rect x="5"  y="-19" width="6"  height="5"  fill="#a06a08"/>
    <rect x="19" y="-19" width="6"  height="5"  fill="#a06a08"/>
    <rect x="0"  y="-14" width="6"  height="5"  fill="#7a4f06"/>
    <rect x="19" y="-14" width="11" height="5"  fill="#7a4f06"/>
  </g>
  <g class="a1">
    <rect x="5"  y="-19" width="6"  height="5"  fill="#a06a08"/>
    <rect x="19" y="-19" width="6"  height="5"  fill="#a06a08"/>
    <rect x="0"  y="-14" width="11" height="5"  fill="#7a4f06"/>
    <rect x="24" y="-14" width="6"  height="5"  fill="#7a4f06"/>
  </g>
</g>

<!-- ==================== CENTER: Title ======================== -->
<text x="405" y="63" font-family="'Courier New',monospace" font-size="28" font-weight="bold"
      fill="#e6edf3" text-anchor="middle" letter-spacing="7">TIRUNARA</text>
<text x="405" y="82" font-family="monospace" font-size="10" fill="#8b949e"
      text-anchor="middle" letter-spacing="2">builder · systems · ai</text>

<!-- ==================== RIGHT: INTEGRITY (dark/green) ========= -->
<text x="670" y="27" font-family="monospace" font-size="7" fill="#3fb950" text-anchor="middle" letter-spacing="1">INTEGRITY</text>
<g transform="translate(643,108)">
  <!-- antenna -->
  <rect x="11" y="-73" width="5"  height="9"  fill="#3fb950" opacity=".8"/>
  <rect x="6"  y="-68" width="15" height="4"  fill="#3fb950" opacity=".45"/>
  <!-- head: dark square -->
  <rect x="0"  y="-64" width="30" height="5"  fill="#21262d"/>
  <rect x="0"  y="-59" width="5"  height="5"  fill="#21262d"/>
  <rect x="5"  y="-59" width="20" height="5"  fill="#161b22"/>
  <rect x="25" y="-59" width="5"  height="5"  fill="#21262d"/>
  <!-- green glowing eyes -->
  <rect x="0"  y="-54" width="5"  height="5"  fill="#21262d"/>
  <rect x="5"  y="-54" width="7"  height="5"  fill="#3fb950" class="ec"/>
  <rect x="12" y="-54" width="6"  height="5"  fill="#161b22"/>
  <rect x="18" y="-54" width="7"  height="5"  fill="#3fb950" class="ec"/>
  <rect x="25" y="-54" width="5"  height="5"  fill="#21262d"/>
  <rect x="0"  y="-49" width="30" height="5"  fill="#21262d"/>
  <!-- body dark -->
  <rect x="0"  y="-44" width="30" height="5"  fill="#161b22"/>
  <rect x="0"  y="-39" width="5"  height="10" fill="#21262d"/>
  <rect x="5"  y="-39" width="20" height="10" fill="#0d1117"/>
  <rect x="25" y="-39" width="5"  height="10" fill="#21262d"/>
  <!-- green chest indicator -->
  <rect x="12" y="-37" width="6"  height="6"  fill="#3fb950" class="ec"/>
  <rect x="0"  y="-29" width="30" height="5"  fill="#161b22"/>
  <rect x="5"  y="-24" width="20" height="5"  fill="#21262d"/>
  <!-- legs (opposite phase) -->
  <g class="a2">
    <rect x="5"  y="-19" width="6"  height="5"  fill="#21262d"/>
    <rect x="19" y="-19" width="6"  height="5"  fill="#21262d"/>
    <rect x="0"  y="-14" width="6"  height="5"  fill="#161b22"/>
    <rect x="19" y="-14" width="11" height="5"  fill="#161b22"/>
  </g>
  <g class="a1">
    <rect x="5"  y="-19" width="6"  height="5"  fill="#21262d"/>
    <rect x="19" y="-19" width="6"  height="5"  fill="#21262d"/>
    <rect x="0"  y="-14" width="11" height="5"  fill="#161b22"/>
    <rect x="24" y="-14" width="6"  height="5"  fill="#161b22"/>
  </g>
</g>

<!-- ==================== GROUND + SCROLLING TILES ============== -->
<line x1="0" y1="108" x2="800" y2="108" stroke="#30363d" stroke-width="1.5"/>
<!-- Scrolling ground tiles (clipped, full width) -->
<g clip-path="url(#gc)">
<g class="gr">
<rect x="0"   y="110" width="8" height="3" fill="#21262d"/>
<rect x="16"  y="110" width="8" height="3" fill="#21262d"/>
<rect x="32"  y="110" width="8" height="3" fill="#21262d"/>
<rect x="48"  y="110" width="8" height="3" fill="#21262d"/>
<rect x="64"  y="110" width="8" height="3" fill="#21262d"/>
<rect x="80"  y="110" width="8" height="3" fill="#21262d"/>
<rect x="96"  y="110" width="8" height="3" fill="#21262d"/>
<rect x="112" y="110" width="8" height="3" fill="#21262d"/>
<rect x="128" y="110" width="8" height="3" fill="#21262d"/>
<rect x="144" y="110" width="8" height="3" fill="#21262d"/>
<rect x="160" y="110" width="8" height="3" fill="#21262d"/>
<rect x="176" y="110" width="8" height="3" fill="#21262d"/>
<rect x="192" y="110" width="8" height="3" fill="#21262d"/>
<rect x="208" y="110" width="8" height="3" fill="#21262d"/>
<rect x="224" y="110" width="8" height="3" fill="#21262d"/>
<rect x="240" y="110" width="8" height="3" fill="#21262d"/>
<rect x="256" y="110" width="8" height="3" fill="#21262d"/>
<rect x="272" y="110" width="8" height="3" fill="#21262d"/>
<rect x="288" y="110" width="8" height="3" fill="#21262d"/>
<rect x="304" y="110" width="8" height="3" fill="#21262d"/>
<rect x="320" y="110" width="8" height="3" fill="#21262d"/>
<rect x="336" y="110" width="8" height="3" fill="#21262d"/>
<rect x="352" y="110" width="8" height="3" fill="#21262d"/>
<rect x="368" y="110" width="8" height="3" fill="#21262d"/>
<rect x="384" y="110" width="8" height="3" fill="#21262d"/>
<rect x="400" y="110" width="8" height="3" fill="#21262d"/>
<rect x="416" y="110" width="8" height="3" fill="#21262d"/>
<rect x="432" y="110" width="8" height="3" fill="#21262d"/>
<rect x="448" y="110" width="8" height="3" fill="#21262d"/>
<rect x="464" y="110" width="8" height="3" fill="#21262d"/>
<rect x="480" y="110" width="8" height="3" fill="#21262d"/>
<rect x="496" y="110" width="8" height="3" fill="#21262d"/>
<rect x="512" y="110" width="8" height="3" fill="#21262d"/>
<rect x="528" y="110" width="8" height="3" fill="#21262d"/>
<rect x="544" y="110" width="8" height="3" fill="#21262d"/>
<rect x="560" y="110" width="8" height="3" fill="#21262d"/>
<rect x="576" y="110" width="8" height="3" fill="#21262d"/>
<rect x="592" y="110" width="8" height="3" fill="#21262d"/>
<rect x="608" y="110" width="8" height="3" fill="#21262d"/>
<rect x="624" y="110" width="8" height="3" fill="#21262d"/>
<rect x="640" y="110" width="8" height="3" fill="#21262d"/>
<rect x="656" y="110" width="8" height="3" fill="#21262d"/>
<rect x="672" y="110" width="8" height="3" fill="#21262d"/>
<rect x="688" y="110" width="8" height="3" fill="#21262d"/>
<rect x="704" y="110" width="8" height="3" fill="#21262d"/>
<rect x="720" y="110" width="8" height="3" fill="#21262d"/>
<rect x="736" y="110" width="8" height="3" fill="#21262d"/>
<rect x="752" y="110" width="8" height="3" fill="#21262d"/>
<rect x="768" y="110" width="8" height="3" fill="#21262d"/>
<rect x="784" y="110" width="8" height="3" fill="#21262d"/>
<rect x="800" y="110" width="8" height="3" fill="#21262d"/>
<rect x="816" y="110" width="8" height="3" fill="#21262d"/>
</g>
</g>

<!-- bottom bar -->
<rect x="0" y="118" width="800" height="12" fill="#161b22"/>
<text x="8"   y="127" font-family="monospace" font-size="8" fill="#4493f8">INTEGRIS</text>
<text x="70"  y="127" font-family="monospace" font-size="8" fill="#8b949e"> + </text>
<text x="86"  y="127" font-family="monospace" font-size="8" fill="#e6a800">JULES</text>
<text x="128" y="127" font-family="monospace" font-size="8" fill="#8b949e">  ·  powered by  </text>
<text x="242" y="127" font-family="monospace" font-size="8" fill="#3fb950">INTEGRITY</text>
<rect x="302" y="119" width="6" height="9" fill="#3fb950" class="bc"/>
</svg>